<mxfile modified="2022-02-04T18:49:53.192Z" host="app.diagrams.net" agent="5.0 (Windows NT 10.0; Win64; x64) AppleWebKit/537.36 (KHTML, like Gecko) Chrome/97.0.4692.99 Safari/537.36" etag="yP0itG1APJmhwa-VSaFR" version="15.9.5" type="github">
  <diagram id="l8hXMBHkgcEJcSW0mbfh" name="Page-1">
    <mxGraphModel dx="850" dy="1113" grid="1" gridSize="10" guides="1" tooltips="1" connect="1" arrows="1" fold="1" page="1" pageScale="1" pageWidth="1169" pageHeight="827" math="0" shadow="0">
      <root>
        <mxCell id="0" />
        <mxCell id="1" parent="0" />
        <mxCell id="E90aWn3OxtCnrGCD0haa-7" style="edgeStyle=orthogonalEdgeStyle;rounded=0;orthogonalLoop=1;jettySize=auto;html=1;entryX=0;entryY=0.5;entryDx=0;entryDy=0;entryPerimeter=0;fontColor=#000000;" edge="1" parent="1" source="E90aWn3OxtCnrGCD0haa-1" target="E90aWn3OxtCnrGCD0haa-6">
          <mxGeometry relative="1" as="geometry" />
        </mxCell>
        <mxCell id="E90aWn3OxtCnrGCD0haa-1" value="&lt;font color=&quot;#000000&quot;&gt;Internet&lt;/font&gt;" style="html=1;outlineConnect=0;fillColor=#CCCCCC;strokeColor=#6881B3;gradientColor=none;gradientDirection=north;strokeWidth=2;shape=mxgraph.networks.cloud;fontColor=#ffffff;" vertex="1" parent="1">
          <mxGeometry x="145" y="200" width="90" height="60" as="geometry" />
        </mxCell>
        <mxCell id="E90aWn3OxtCnrGCD0haa-5" value="" style="edgeStyle=orthogonalEdgeStyle;rounded=0;orthogonalLoop=1;jettySize=auto;html=1;fontColor=#000000;" edge="1" parent="1" source="E90aWn3OxtCnrGCD0haa-2" target="E90aWn3OxtCnrGCD0haa-1">
          <mxGeometry relative="1" as="geometry" />
        </mxCell>
        <mxCell id="E90aWn3OxtCnrGCD0haa-2" value="&lt;font color=&quot;#000000&quot;&gt;Azure Labs RDP Session&lt;/font&gt;" style="fontColor=#0066CC;verticalAlign=top;verticalLabelPosition=bottom;labelPosition=center;align=center;html=1;outlineConnect=0;fillColor=#CCCCCC;strokeColor=#6881B3;gradientColor=none;gradientDirection=north;strokeWidth=2;shape=mxgraph.networks.laptop;" vertex="1" parent="1">
          <mxGeometry x="140" y="520" width="100" height="55" as="geometry" />
        </mxCell>
        <mxCell id="E90aWn3OxtCnrGCD0haa-10" value="" style="edgeStyle=orthogonalEdgeStyle;rounded=0;orthogonalLoop=1;jettySize=auto;html=1;fontColor=#000000;" edge="1" parent="1" source="E90aWn3OxtCnrGCD0haa-6" target="E90aWn3OxtCnrGCD0haa-9">
          <mxGeometry relative="1" as="geometry" />
        </mxCell>
        <mxCell id="E90aWn3OxtCnrGCD0haa-6" value="&lt;font color=&quot;#000000&quot;&gt;Firewall&lt;/font&gt;" style="fontColor=#0066CC;verticalAlign=top;verticalLabelPosition=bottom;labelPosition=center;align=center;html=1;outlineConnect=0;fillColor=#CCCCCC;strokeColor=#6881B3;gradientColor=none;gradientDirection=north;strokeWidth=2;shape=mxgraph.networks.firewall;" vertex="1" parent="1">
          <mxGeometry x="280" y="350" width="70" height="60" as="geometry" />
        </mxCell>
        <mxCell id="E90aWn3OxtCnrGCD0haa-9" value="&lt;font color=&quot;#000000&quot;&gt;VM Hyper V Manager&lt;br&gt;Windows&lt;br&gt;192.168.1.1&lt;br&gt;&lt;/font&gt;" style="fontColor=#0066CC;verticalAlign=top;verticalLabelPosition=bottom;labelPosition=center;align=center;html=1;outlineConnect=0;fillColor=#CCCCCC;strokeColor=#6881B3;gradientColor=none;gradientDirection=north;strokeWidth=2;shape=mxgraph.networks.virtual_server;" vertex="1" parent="1">
          <mxGeometry x="410" y="320" width="110" height="120" as="geometry" />
        </mxCell>
        <mxCell id="E90aWn3OxtCnrGCD0haa-11" value="&lt;font color=&quot;#ff0000&quot;&gt;Capstone&amp;nbsp; Linux OS&lt;br&gt;192.168.1.105&lt;br&gt;22/tcp open ssh&lt;br&gt;80/tcp open http&lt;br&gt;&lt;/font&gt;" style="fontColor=#0066CC;verticalAlign=top;verticalLabelPosition=bottom;labelPosition=center;align=center;html=1;outlineConnect=0;fillColor=#CCCCCC;strokeColor=#FF0000;gradientColor=none;gradientDirection=north;strokeWidth=2;shape=mxgraph.networks.virtual_server;" vertex="1" parent="1">
          <mxGeometry x="584.5" y="330" width="110" height="120" as="geometry" />
        </mxCell>
        <mxCell id="E90aWn3OxtCnrGCD0haa-12" value="&lt;font color=&quot;#000000&quot;&gt;Kali Linux OS&amp;nbsp;&lt;br&gt;192.168.1.90&lt;br&gt;&lt;/font&gt;" style="fontColor=#0066CC;verticalAlign=top;verticalLabelPosition=bottom;labelPosition=center;align=center;html=1;outlineConnect=0;fillColor=#CCCCCC;strokeColor=#6881B3;gradientColor=none;gradientDirection=north;strokeWidth=2;shape=mxgraph.networks.virtual_server;" vertex="1" parent="1">
          <mxGeometry x="585" y="70" width="110" height="120" as="geometry" />
        </mxCell>
        <mxCell id="E90aWn3OxtCnrGCD0haa-13" value="&lt;font color=&quot;#000000&quot;&gt;Elk Linux OS&lt;br&gt;192.168.1.100&lt;br&gt;&lt;/font&gt;" style="fontColor=#0066CC;verticalAlign=top;verticalLabelPosition=bottom;labelPosition=center;align=center;html=1;outlineConnect=0;fillColor=#CCCCCC;strokeColor=#6881B3;gradientColor=none;gradientDirection=north;strokeWidth=2;shape=mxgraph.networks.virtual_server;" vertex="1" parent="1">
          <mxGeometry x="585" y="590" width="110" height="120" as="geometry" />
        </mxCell>
      </root>
    </mxGraphModel>
  </diagram>
</mxfile>
